<svg width="18" height="18" viewBox="0 0 18 18" fill="none" xmlns="http://www.w3.org/2000/svg">
<path fill-rule="evenodd" clip-rule="evenodd" d="M17.7156 0.0842433C17.8025 0.134637 17.8743 0.205008 17.924 0.288683C17.9738 0.372359 18 0.466566 18 0.562372V17.4375C18 17.5867 17.9368 17.7298 17.8243 17.8352C17.7117 17.9407 17.5591 18 17.4 18H13.8C13.6409 18 13.4883 17.9407 13.3757 17.8352C13.2632 17.7298 13.2 17.5867 13.2 17.4375V15.75H12V17.4375C12 17.5867 11.9368 17.7298 11.8243 17.8352C11.7117 17.9407 11.5591 18 11.4 18H0.6C0.44087 18 0.288258 17.9407 0.175736 17.8352C0.0632141 17.7298 0 17.5867 0 17.4375V11.25C9.55761e-05 11.1319 0.0397777 11.0169 0.11343 10.9212C0.187082 10.8255 0.290974 10.754 0.4104 10.7167L7.2 8.59493V5.0624C7.2 4.95803 7.23098 4.85571 7.28948 4.7669C7.34797 4.67809 7.43166 4.60629 7.5312 4.55953L17.1312 0.0594932C17.2228 0.0165244 17.3245 -0.00375911 17.4268 0.000573169C17.5291 0.00490545 17.6285 0.0337094 17.7156 0.0842433V0.0842433ZM7.2 9.78069L1.2 11.655V16.875H7.2V9.78069ZM8.4 16.875H10.8V15.1875C10.8 15.0383 10.8632 14.8952 10.9757 14.7897C11.0883 14.6842 11.2409 14.625 11.4 14.625H13.8C13.9591 14.625 14.1117 14.6842 14.2243 14.7897C14.3368 14.8952 14.4 15.0383 14.4 15.1875V16.875H16.8V1.4725L8.4 5.41003V16.875Z" fill="white"/>
<path d="M2.40015 12.3749H3.60015V13.5H2.40015V12.3749ZM4.80015 12.3749H6.00015V13.5H4.80015V12.3749ZM2.40015 14.625H3.60015V15.75H2.40015V14.625ZM4.80015 14.625H6.00015V15.75H4.80015V14.625ZM9.60015 10.1249H10.8001V11.2499H9.60015V10.1249ZM12.0001 10.1249H13.2001V11.2499H12.0001V10.1249ZM9.60015 12.3749H10.8001V13.5H9.60015V12.3749ZM12.0001 12.3749H13.2001V13.5H12.0001V12.3749ZM14.4001 10.1249H15.6001V11.2499H14.4001V10.1249ZM14.4001 12.3749H15.6001V13.5H14.4001V12.3749ZM9.60015 7.87491H10.8001V8.99992H9.60015V7.87491ZM12.0001 7.87491H13.2001V8.99992H12.0001V7.87491ZM14.4001 7.87491H15.6001V8.99992H14.4001V7.87491ZM9.60015 5.62489H10.8001V6.7499H9.60015V5.62489ZM12.0001 5.62489H13.2001V6.7499H12.0001V5.62489ZM14.4001 5.62489H15.6001V6.7499H14.4001V5.62489ZM14.4001 3.37488H15.6001V4.49989H14.4001V3.37488Z" fill="white"/>
</svg>
