<svg width="18" height="18" viewBox="0 0 18 18" fill="none" xmlns="http://www.w3.org/2000/svg">
<path d="M6.28831 1.85945L5.64391 2.05385C5.06917 2.22698 4.55585 2.56072 4.16441 3.01578C3.77297 3.47085 3.51969 4.02828 3.43441 4.62245C3.16711 6.48365 3.76471 8.65985 5.20561 11.1555C6.64291 13.6449 8.22511 15.2487 9.96661 15.9507C10.5262 16.1763 11.1387 16.2364 11.7314 16.1239C12.3241 16.0114 12.8721 15.7311 13.3101 15.3162L13.7988 14.8536C14.1154 14.5537 14.3124 14.1491 14.3531 13.7149C14.3938 13.2807 14.2755 12.8465 14.0202 12.4929L12.7998 10.8009C12.6348 10.5725 12.4025 10.4014 12.1354 10.3117C11.8683 10.222 11.5798 10.2181 11.3103 10.3005L9.46441 10.8648L9.41671 10.8738C9.21331 10.9035 8.74441 10.4634 8.15941 9.45005C7.54741 8.38985 7.41961 7.76975 7.58881 7.60955L8.52841 6.73385C8.87153 6.41375 9.10585 5.99429 9.1985 5.53428C9.29114 5.07427 9.23747 4.5968 9.04501 4.16885L8.45101 2.84495C8.27182 2.44616 7.95361 2.12622 7.5558 1.94487C7.15799 1.76352 6.70777 1.73316 6.28921 1.85945H6.28831ZM7.62931 3.21395L8.22421 4.53785C8.33989 4.79455 8.37224 5.08106 8.31671 5.3571C8.26118 5.63313 8.12056 5.88484 7.91461 6.07685L6.97321 6.95345C6.37021 7.52315 6.57001 8.49785 7.37911 9.90005C8.14141 11.2194 8.83621 11.871 9.58231 11.7576L9.69391 11.7342L11.5731 11.1609C11.6629 11.1334 11.7591 11.1346 11.8482 11.1644C11.9373 11.1943 12.0149 11.2513 12.0699 11.3274L13.2903 13.0194C13.4181 13.1963 13.4773 13.4135 13.457 13.6307C13.4366 13.8479 13.338 14.0503 13.1796 14.2002L12.6909 14.6628C12.378 14.959 11.9867 15.159 11.5634 15.2393C11.1402 15.3195 10.7028 15.2766 10.3032 15.1155C8.77501 14.4999 7.33051 13.0356 5.98501 10.7055C4.63681 8.37005 4.09141 6.38375 4.32541 4.75025C4.38629 4.32572 4.56722 3.92744 4.8469 3.60232C5.12658 3.2772 5.49335 3.03878 5.90401 2.91515L6.54931 2.72075C6.75852 2.65788 6.98346 2.67325 7.18217 2.764C7.38089 2.85474 7.53981 3.01467 7.62931 3.21395Z" fill="black"/>
</svg>
