<svg width="778" height="573" viewBox="0 0 778 573" fill="none" xmlns="http://www.w3.org/2000/svg">
<path opacity="0.1" d="M776.152 484.537C777.366 484.692 778.923 485.725 770.954 487.882C728.206 499.424 613.23 526.415 569.456 536.267C516.157 548.275 477.987 549.401 433.965 549.401C389.941 549.401 258.031 537.485 238.041 534.075C218.054 530.667 258.061 518.283 310.272 510.151C365.503 501.52 594.334 470.964 594.334 470.964C594.334 470.964 769.272 483.692 776.152 484.537Z" fill="#0E2529"/>
<path d="M757.409 483.474C758.437 483.599 759.714 484.474 753.051 486.289C717.184 495.953 620.703 518.627 583.935 526.884C539.195 536.954 507.159 537.892 470.235 537.892C433.279 537.892 315.097 529.512 298.316 526.666C281.535 523.82 322.29 509.12 366.437 504.96C410.584 500.801 604.826 472.059 604.826 472.059C604.826 472.059 751.65 482.754 757.409 483.474Z" fill="#162C30"/>
<path d="M332.159 514.311C352.139 514.311 368.337 492.088 368.337 464.677C368.337 437.266 352.139 415.043 332.159 415.043C312.178 415.043 295.983 437.266 295.983 464.677C295.983 492.088 312.178 514.311 332.159 514.311Z" fill="#162C30"/>
<path d="M331.753 415.043H353.452L350.995 515.906L331.753 514.311V415.043Z" fill="#162C30"/>
<path d="M351.553 515.873C370.776 515.873 386.359 493.372 386.359 465.615C386.359 437.858 370.776 415.357 351.553 415.357C332.33 415.357 316.744 437.858 316.744 465.615C316.744 493.372 332.33 515.873 351.553 515.873Z" fill="#162C30"/>
<path d="M353.793 504.083C367.961 504.083 379.446 486.861 379.446 465.615C379.446 444.37 367.961 427.147 353.793 427.147C339.622 427.147 328.137 444.37 328.137 465.615C328.137 486.861 339.622 504.083 353.793 504.083Z" fill="#F0F2F8"/>
<path d="M354.351 500.236C366.819 500.236 376.924 484.736 376.924 465.615C376.924 446.493 366.819 430.994 354.351 430.994C341.886 430.994 331.781 446.493 331.781 465.615C331.781 484.736 341.886 500.236 354.351 500.236Z" fill="#162C30"/>
<path d="M357.467 428.366L354.852 459.705L376.116 448.351L377.892 454.981L355.725 466.929L373.252 488.228L370.264 494.045L351.956 472.152L342.15 499.017L337.885 494.168L347.288 466.866L329.043 459.11L330.412 451.259L348.222 459.203L350.742 427.959L357.467 428.366Z" fill="#F0F2F8"/>
<path d="M351.645 476.748C355.739 476.748 359.056 471.764 359.056 465.615C359.056 459.466 355.739 454.482 351.645 454.482C347.554 454.482 344.237 459.466 344.237 465.615C344.237 471.764 347.554 476.748 351.645 476.748Z" fill="#A6B3C6"/>
<path d="M346.725 465.615C346.725 468.556 348.312 470.933 350.274 470.933C352.236 470.933 353.823 468.556 353.823 465.615C353.823 462.676 352.236 460.299 350.274 460.299C348.312 460.329 346.725 462.706 346.725 465.615Z" fill="#F0F2F8"/>
<path d="M357.938 340.578C361.209 342.641 360.928 350.522 363.106 355.089C363.106 355.089 366.875 357.967 365.348 360.124C364.507 361.312 363.138 362.22 361.549 361.939C360.553 361.751 358.873 360.094 357.907 358.875C353.019 358.185 347.821 356.716 345.454 355.903C340.223 354.121 337.702 345.206 339.569 340.515C341.126 336.638 352.927 337.418 357.938 340.578Z" fill="#E6E7E8"/>
<path opacity="0.15" d="M358.498 339.108C360.303 347.959 364.164 356.904 352.053 353.057C345.546 350.991 343.118 348.99 339.692 342.704C336.984 337.669 336.113 330.537 336.113 330.537L334.929 356.372L362.482 363.283L365.346 361.249L362.918 356.809L363.073 353.057L358.498 339.108Z" fill="#231F20"/>
<path d="M738.42 444.005L693.432 465.74L590.319 485.412L517.185 482.942L399.128 477.032L433.532 387.929L733.78 395.715C733.78 395.715 735.089 405.349 738.014 416.826C740.91 428.336 738.42 444.005 738.42 444.005Z" fill="#151717"/>
<path d="M733.158 444.005L688.171 465.74L585.056 485.412L511.924 482.942L393.865 477.032L428.268 387.929L728.518 395.715C728.518 395.715 729.827 405.349 732.753 416.826C735.649 428.336 733.158 444.005 733.158 444.005Z" fill="#151717"/>
<path d="M538.289 526.259C559.094 526.259 575.961 501.768 575.961 471.558C575.961 441.347 559.094 416.859 538.289 416.859C517.484 416.859 500.619 441.347 500.619 471.558C500.619 501.768 517.484 526.259 538.289 526.259Z" fill="#162C30"/>
<path d="M538.289 416.859H563.975L561.047 528.009L538.289 526.289V416.859Z" fill="#162C30"/>
<path d="M683.903 450.043C683.903 472.904 691.249 491.419 700.309 491.419C709.369 491.419 716.718 472.904 716.718 450.043C716.718 427.179 709.369 408.666 700.309 408.666C691.249 408.666 683.903 427.179 683.903 450.043Z" fill="#162C30"/>
<path d="M700.31 408.664H720.92L721.323 492.45L700.31 491.417V408.664Z" fill="#162C30"/>
<path d="M704.264 450.54C704.264 473.684 711.89 492.45 721.293 492.45C730.696 492.45 738.355 473.684 738.355 450.54C738.355 427.398 730.726 408.632 721.293 408.632C711.89 408.664 704.264 427.428 704.264 450.54Z" fill="#162C30"/>
<path d="M709.838 450.54C709.838 468.243 715.472 482.629 722.384 482.629C729.327 482.629 734.963 468.273 734.963 450.54C734.963 432.839 729.327 418.451 722.384 418.451C715.472 418.484 709.838 432.839 709.838 450.54Z" fill="#F0F2F8"/>
<path d="M711.612 450.542C711.612 466.492 716.56 479.409 722.665 479.409C728.766 479.409 733.717 466.492 733.717 450.542C733.717 434.592 728.766 421.673 722.665 421.673C716.56 421.673 711.612 434.592 711.612 450.542Z" fill="#162C30"/>
<path d="M724.221 419.484L721.979 445.63L733.342 436.154L734.215 441.691L722.414 451.636L731.943 469.401L730.478 474.248L720.577 455.984L716.718 478.376L714.631 474.341L718.275 451.573L710.303 445.131L710.957 438.594L718.74 445.194L720.92 419.141L724.221 419.484Z" fill="#F0F2F8"/>
<path d="M716.931 450.542C716.931 455.67 718.55 459.83 720.575 459.83C722.567 459.83 724.217 455.67 724.217 450.542C724.217 445.412 722.597 441.252 720.575 441.252C718.55 441.284 716.931 445.412 716.931 450.542Z" fill="#A6B3C6"/>
<path d="M717.466 450.54C717.466 452.98 718.244 454.95 719.21 454.95C720.174 454.95 720.952 452.98 720.952 450.54C720.952 448.1 720.174 446.131 719.21 446.131C718.244 446.131 717.466 448.1 717.466 450.54Z" fill="#F0F2F8"/>
<path d="M738.417 444.005L738.51 434.341C738.51 434.341 737.606 398.343 723.005 399.126C711.019 399.75 705.943 414.667 702.239 431.149C699.126 445.036 697.041 465.896 689.443 467.084C673.129 469.587 653.422 472.997 636.486 475.56C619.735 478.095 592.587 485.382 592.587 485.382C595.077 456.733 590.066 398.78 565.439 400.063C542.681 401.252 534.585 444.005 530.382 492.418C525.309 495.296 479.573 497.734 458.715 497.734C436.453 497.734 330.474 494.263 317.244 492.669C304.042 491.074 294.609 490.354 287.979 475.843C277.082 452.042 278.016 430.119 280.008 421.611C283.652 406.067 287.574 378.326 344.422 356.904C346.322 356.184 356.223 356.746 358.308 356.277C400.93 317.278 447.662 286.972 486.018 281.749C523.41 276.651 583.995 274.118 628.89 272.24C659.214 270.959 689.132 287.473 714.693 317.902C723.691 325.034 730.228 329.788 730.228 329.788C730.228 329.788 741.996 379.983 744.114 383.8C746.884 388.647 743.833 438.469 738.417 444.005Z" fill="#E6E7E8"/>
<path opacity="0.2" d="M334.617 353.464C280.321 369.319 313.415 384.988 350.402 386.458C421.854 389.274 542.058 350.929 542.058 350.929L334.617 353.464Z" fill="white"/>
<path opacity="0.1" d="M527.55 502.864C527.55 502.864 526.616 455.294 535.459 426.428C542.026 405.036 551.772 391.149 567.65 390.899C587.234 390.588 603.329 440.064 592.277 486.382C588.696 501.425 527.55 502.864 527.55 502.864Z" fill="#231F20"/>
<path opacity="0.1" d="M693.18 472.621C693.18 472.621 696.168 433.777 701.554 417.202C706.287 402.659 714.131 392.807 724.5 392.651C737.264 392.431 744.735 428.774 737.512 461.956C735.177 472.714 693.18 472.621 693.18 472.621Z" fill="#231F20"/>
<path opacity="0.2" d="M560.8 354.088L705.789 324.346L715.252 318.404L730.882 329.349C729.761 331.413 721.977 337.168 716.904 338.639C684.711 347.927 610.988 359.279 584.276 363.128L578.079 356.809L569.019 357.905L575.651 364.284C550.028 367.506 519.704 369.006 560.8 354.088Z" fill="white"/>
<path opacity="0.2" d="M650.094 454.231C629.14 457.829 599.938 463.769 606.195 465.991C612.454 468.243 637.92 462.332 654.484 458.892C694.085 450.635 712.516 443.566 650.094 454.231Z" fill="white"/>
<path d="M525.032 500.863C528.113 498.955 529.794 496.264 530.385 492.45C530.385 492.45 481.133 498.516 476.773 495.67C462.95 486.57 443.678 469.055 410.709 467.992C393.99 467.46 305.261 464.178 294.83 464.647C284.4 465.116 295.05 499.331 305.011 500.582C330.011 503.677 418.368 507.869 440.472 507.242C462.297 506.618 525.032 500.863 525.032 500.863Z" fill="#383939"/>
<path fill-rule="evenodd" clip-rule="evenodd" d="M714.167 346.144L701.588 349.71L702.399 346.458L714.946 342.922L714.167 346.144Z" fill="#162C30"/>
<path fill-rule="evenodd" clip-rule="evenodd" d="M714.042 345.645L701.493 349.178L702.272 345.926L714.851 342.391L714.042 345.645Z" fill="#A6B3C6"/>
<path fill-rule="evenodd" clip-rule="evenodd" d="M660.708 359.562L643.274 362.814L644.488 359.156L661.89 355.933L660.708 359.562Z" fill="#162C30"/>
<path fill-rule="evenodd" clip-rule="evenodd" d="M660.648 358.967L643.213 362.19L644.397 358.561L661.832 355.309L660.648 358.967Z" fill="#A6B3C6"/>
<path d="M351.347 398.016C353.605 395.815 354.106 392.653 352.466 390.954C350.828 389.257 347.666 389.664 345.407 391.864C343.148 394.065 342.648 397.227 344.288 398.924C345.928 400.623 349.088 400.217 351.347 398.016Z" fill="#D0D2D3"/>
<path opacity="0.1" d="M592.216 390.773C597.79 414.98 601.184 458.829 609.964 457.641C620.611 456.201 674.441 446.131 681.414 444.223C688.356 442.315 697.011 406.224 702.802 391.492C708.158 377.857 726.807 348.052 738.793 419.391C740.257 428.18 740.785 401.377 740.069 391.806C738.482 371.508 733.034 362.282 679.296 367.287C659.777 369.1 588.978 376.701 592.216 390.773Z" fill="#231F20"/>
<path opacity="0.1" d="M526.991 410.665C531.411 401.001 517.839 401.094 486.486 423.08C467.277 436.56 444.892 451.197 456.07 460.329C465.067 467.678 483.062 477.937 495.889 477.342C508.716 476.748 510.583 469.993 511.892 464.02C513.571 456.327 522.569 420.329 526.991 410.665Z" fill="#231F20"/>
<path opacity="0.1" d="M319.8 417.232C333.778 416.982 361.269 418.045 377.74 418.546C398.753 419.171 415.069 425.114 429.67 437.904C437.018 444.349 407.315 448.102 375.87 447.789C355.417 447.601 330.977 446.6 316.997 445.6C303.019 444.599 287.078 445.194 290.472 436.999C293.275 430.149 301.65 417.546 319.8 417.232Z" fill="#231F20"/>
<path d="M350.59 356.934C396.699 357.716 507.532 354.713 542.091 350.898C563.885 315.994 588.964 277.723 630 272.5C570.006 273.438 517.216 275.994 485.583 279.372C454.295 282.717 394.611 316.026 350.59 356.934Z" fill="#162C30"/>
<path d="M353.42 358.373C441.996 294.602 591.733 280.13 629 272.5C569.006 273.438 536.672 274.429 504.979 277.496C457.376 282.092 397.474 317.463 353.42 358.373Z" fill="#6C8294"/>
<path d="M697.262 455.921C697.262 455.921 670.922 462.082 646.575 467.179C623.847 471.934 611.831 475.279 592.963 480.033C592.184 481.941 590.35 484.943 590.35 484.943L590.037 486.914C590.037 486.914 639.042 476.156 654.203 473.997C682.938 469.87 691.035 469.338 693.275 467.024C695.517 464.709 697.262 455.921 697.262 455.921Z" fill="#383939"/>
<path d="M560.804 354.088C624.908 348.366 698.6 332.102 708.158 329.349C712.018 328.256 712.205 326.034 713.762 319.374C690.101 290.819 653.862 278.903 636.178 280.811C586.925 286.127 560.804 354.088 560.804 354.088Z" fill="#162C30"/>
<path d="M561.985 350.274C561.985 350.274 596.761 307.145 647.538 305.861C687.328 304.86 713.79 317.34 713.79 317.34C713.79 317.34 711.642 270.334 664.289 270.334C616.934 270.334 583.467 281.124 575.247 296.355C567.028 311.585 561.985 350.274 561.985 350.274Z" fill="#6C8294"/>
<path d="M640.065 280.623C638.696 280.623 637.387 280.685 636.173 280.811C586.921 286.127 560.799 354.088 560.799 354.088C624.903 348.366 698.596 332.102 708.154 329.349C712.013 328.256 712.201 326.034 713.758 319.374C691.715 292.759 658.746 280.623 640.065 280.623ZM708.309 324.971C708.154 325.221 708.061 325.41 707.125 325.69C702.58 327.004 681.784 331.759 654.231 336.856C631.721 341.046 598.874 346.52 566.808 349.68C569.734 343.331 575.213 332.604 583.059 321.656C590.19 311.711 597.878 303.609 605.88 297.511C615.688 290.069 626.025 285.721 636.546 284.565C637.638 284.439 638.789 284.377 640.033 284.377C649.591 284.377 661.982 287.659 674.001 293.414C683.714 298.043 697.662 306.458 709.618 320.312C709.15 322.501 708.745 324.188 708.309 324.971Z" fill="#162C30"/>
<path d="M586.638 336.418C581.628 338.639 575.866 347.521 572.505 352.461C572.505 352.461 566.746 355.558 569.081 357.935C570.388 359.249 572.473 360.219 574.903 359.873C576.459 359.655 578.98 357.872 580.474 356.558C587.947 355.808 595.916 354.213 599.528 353.368C607.529 351.46 611.141 342.486 611.078 336.887C611.048 332.822 594.267 333.01 586.638 336.418Z" fill="#E6E7E8"/>
<path opacity="0.15" d="M584.429 337.388C577.268 347.426 570.886 354.401 589.439 350.272C599.433 348.052 603.139 345.893 608.338 339.075C612.48 333.634 613.819 325.941 613.819 325.941L615.623 353.87L573.439 361.345L569.049 359.156L572.753 354.369L572.503 350.304L584.429 337.388Z" fill="#231F20"/>
<path d="M298.068 401.721C298.068 401.721 326.119 404.66 346.667 404.785C372.726 404.941 428.767 402.438 428.767 402.438L438.167 383.767C438.167 383.767 379.419 388.366 347.508 387.771C326.99 387.395 298.909 384.707 298.909 384.707L298.068 401.721Z" fill="#667B8B"/>
<path d="M561.89 527.977C583.091 527.977 600.278 503.18 600.278 472.591C600.278 441.999 583.091 417.202 561.89 417.202C540.689 417.202 523.502 441.999 523.502 472.591C523.502 503.18 540.689 527.977 561.89 527.977Z" fill="#162C30"/>
<path d="M564.351 514.998C579.964 514.998 592.62 496.011 592.62 472.588C592.62 449.168 579.964 430.181 564.351 430.181C548.739 430.181 536.082 449.168 536.082 472.588C536.082 496.011 548.739 514.998 564.351 514.998Z" fill="#F0F2F8"/>
<path d="M564.943 510.775C578.699 510.775 589.849 493.678 589.849 472.588C589.849 451.499 578.699 434.401 564.943 434.401C551.187 434.401 540.035 451.499 540.035 472.588C540.035 493.678 551.187 510.775 564.943 510.775Z" fill="#162C30"/>
<path d="M568.397 431.525L565.502 466.084L588.945 453.544L590.907 460.861L566.468 474.028L585.802 497.516L582.501 503.927L562.358 479.782L551.523 509.401L546.821 504.053L557.157 473.935L537.077 465.397L538.572 456.766L558.186 465.49L560.987 431.089L568.397 431.525Z" fill="#F0F2F8"/>
<path d="M553.797 472.588C553.797 479.376 557.468 484.85 561.983 484.85C566.498 484.85 570.172 479.344 570.172 472.588C570.172 465.803 566.498 460.329 561.983 460.329C557.468 460.329 553.797 465.803 553.797 472.588Z" fill="#A6B3C6"/>
<path d="M556.57 472.591C556.57 475.811 558.312 478.439 560.461 478.439C562.609 478.439 564.353 475.811 564.353 472.591C564.353 469.369 562.609 466.741 560.461 466.741C558.312 466.741 556.57 469.369 556.57 472.591Z" fill="#F0F2F8"/>
<path d="M372.008 387.24C372.008 387.24 371.385 377.074 369.986 372.696L331.223 373.01C331.223 373.01 332.937 379.266 333.716 386.771L372.008 387.24Z" fill="#E6E7E8"/>
<path d="M329.2 404.065C329.2 404.065 337.825 404.785 346.667 404.785C355.509 404.785 365.721 404.785 365.721 404.785C365.721 404.785 369.207 392.087 372.01 387.24C372.01 387.24 357.689 387.583 348.752 387.458C339.849 387.333 333.715 386.771 333.715 386.771C329.45 395.121 329.2 404.065 329.2 404.065Z" fill="#162C30"/>
<path d="M333.718 386.771L336.832 392.556L372.945 392.869C372.945 392.869 373.1 386.926 372.011 387.24C370.922 387.553 333.718 386.771 333.718 386.771Z" fill="black"/>
<path d="M336.829 392.556L332.782 405.693L326.868 403.504L331.693 385.364L333.716 386.771L336.829 392.556Z" fill="black"/>
<path d="M348.247 399.812C350.406 397.709 350.886 394.684 349.32 393.062C347.751 391.437 344.728 391.827 342.569 393.93C340.408 396.036 339.928 399.058 341.497 400.683C343.065 402.306 346.088 401.918 348.247 399.812Z" fill="black"/>
<path d="M360.979 400.381C363.434 397.99 363.981 394.552 362.197 392.704C360.413 390.857 356.976 391.3 354.52 393.693C352.065 396.084 351.518 399.522 353.302 401.37C355.085 403.218 358.523 402.775 360.979 400.381Z" fill="black"/>
<path d="M371.075 387.771C371.075 387.771 370.452 377.606 369.05 373.228L331.223 373.604C331.223 373.604 332.75 379.765 333.528 387.27L371.075 387.771Z" fill="#162C30"/>
<path d="M656.849 473.496L656.724 473.027C661.269 471.713 663.541 467.398 664.662 463.99C665.754 460.675 665.971 457.578 666.001 456.952C665.193 456.357 660.18 452.293 661.269 447.037C665.628 426.272 666.812 393.652 664.818 350.054L654.576 340.796C654.544 340.766 654.514 340.733 654.514 340.671L639.975 280.841L640.44 280.716L654.949 340.485L665.223 349.74C665.286 349.773 665.286 349.835 665.318 349.898C667.31 393.589 666.126 426.302 661.767 447.1C660.648 452.481 666.344 456.578 666.407 456.608C666.469 456.641 666.499 456.733 666.499 456.796C666.469 457.014 665.909 470.871 656.849 473.496Z" fill="#404041"/>
<path d="M720.082 399.72L719.614 399.657C719.614 399.594 720.33 394.559 719.303 385.021C719.148 383.674 718.773 382.175 718.337 380.61C717.436 377.232 716.408 373.386 717.061 368.724C717.934 362.157 716.781 340.327 716.718 338.765L708.001 329.537C707.971 329.507 707.971 329.474 707.938 329.444L699.939 305.924L700.375 305.768L708.376 329.224L717.093 338.451C717.123 338.481 717.156 338.544 717.156 338.607C717.156 338.827 718.432 361.939 717.496 368.757C716.876 373.323 717.902 377.107 718.773 380.454C719.211 382.049 719.584 383.581 719.739 384.958C720.798 394.589 720.082 399.657 720.082 399.72Z" fill="#404041"/>
<path d="M599.097 485.382L598.909 484.943C607.066 481.192 606.195 468.712 606.132 467.867C605.884 467.398 603.767 463.082 602.801 457.546C602.521 455.858 602.148 452.854 601.587 448.727C599.19 429.9 594.176 390.743 584.123 363.283L574.066 352.962L574.407 352.619L584.496 363.002C584.526 363.032 584.526 363.065 584.558 363.095C594.644 390.618 599.657 429.838 602.085 448.697C602.613 452.824 602.989 455.826 603.269 457.516C604.265 463.301 606.538 467.711 606.568 467.741C606.568 467.774 606.6 467.804 606.6 467.837C606.6 467.899 607.814 481.377 599.097 485.382Z" fill="#404041"/>
<path d="M492.06 375.169L491.905 374.73C492.403 374.574 541.781 358.592 560.739 353.87L560.864 354.339C541.906 359.03 492.528 375.011 492.06 375.169Z" fill="#404041"/>
<path d="M546.263 357.905C546.263 357.872 545.89 354.778 541.906 351.087L542.216 350.743C546.326 354.557 546.698 357.747 546.698 357.872L546.263 357.905Z" fill="#404041"/>
<path d="M349.128 405.036C348.287 405.036 347.446 405.036 346.667 405.036C326.367 404.91 298.348 402.002 298.068 401.972L298.131 401.503C298.411 401.533 326.43 404.442 346.697 404.567C372.446 404.722 428.236 402.252 428.797 402.22L428.829 402.689C428.236 402.721 375.807 405.036 349.128 405.036Z" fill="#404041"/>
<path d="M353.362 388.085C351.338 388.085 349.378 388.053 347.508 388.022C327.211 387.646 299.189 384.988 298.909 384.956L298.942 384.487C299.222 384.519 327.241 387.177 347.508 387.554C379.046 388.115 437.579 383.582 438.139 383.549L438.17 384.018C437.641 384.081 385.771 388.085 353.362 388.085Z" fill="#404041"/>
<path d="M550.373 408.82L545.61 403.847C545.577 403.815 539.508 398.78 529.201 393.807C517.651 388.21 492.153 378.075 491.905 377.982L492.09 377.543C492.34 377.639 517.869 387.771 529.419 393.371C539.756 398.373 545.89 403.441 545.953 403.504L550.746 408.506L550.373 408.82Z" fill="#404041"/>
<path d="M430.013 402.972C419.551 403.817 416.968 388.742 427.117 386.021C427.367 385.959 427.615 385.896 427.865 385.833C453.426 379.203 492.31 374.637 492.31 374.637C492.31 374.637 495.704 393.246 466.533 398.561C455.821 400.502 442.529 401.939 430.013 402.972Z" fill="url(#paint0_linear)"/>
<path d="M478.774 390.216C483.62 388.201 486.453 383.913 485.105 380.642C483.757 377.372 478.737 376.352 473.891 378.367C469.047 380.382 466.211 384.668 467.559 387.941C468.908 391.212 473.928 392.231 478.774 390.216Z" fill="#667B8B"/>
<path d="M456.98 396.156C461.824 394.141 464.659 389.856 463.311 386.585C461.963 383.312 456.943 382.295 452.097 384.31C447.253 386.325 444.417 390.611 445.766 393.881C447.114 397.152 452.134 398.171 456.98 396.156Z" fill="#667B8B"/>
<path d="M436.055 399.223C440.63 397.319 443.303 393.266 442.027 390.172C440.753 387.075 436.008 386.109 431.433 388.011C426.858 389.914 424.185 393.965 425.459 397.062C426.735 400.159 431.479 401.124 436.055 399.223Z" fill="#667B8B"/>
<path d="M304.918 402.721C298.038 402.034 289.443 402.721 290.379 395.121C291.313 387.521 302.21 380.422 302.21 380.422C303.361 380.485 305.166 381.829 307.346 384.331C312.702 390.462 310.739 403.316 304.918 402.721Z" fill="url(#paint1_linear)"/>
<path d="M306.29 400.876C308.526 400.876 310.337 398.355 310.337 395.246C310.337 392.138 308.526 389.617 306.29 389.617C304.055 389.617 302.243 392.138 302.243 395.246C302.243 398.355 304.055 400.876 306.29 400.876Z" fill="#667B8B"/>
<path d="M299.405 395.685C301.64 395.685 303.452 393.164 303.452 390.056C303.452 386.945 301.64 384.427 299.405 384.427C297.169 384.427 295.358 386.945 295.358 390.056C295.358 393.164 297.169 395.685 299.405 395.685Z" fill="#667B8B"/>
<path opacity="0.1" d="M187.855 538.86C187.855 538.86 199.283 539.955 196.232 540.457C192.868 541.019 108.03 556.969 104.917 557.596C101.803 558.22 93.7086 558.845 85.6449 557.596C77.5503 556.344 8.71444 550.963 2.51878 550.369C-3.67665 549.775 1.67833 547.774 17.245 545.271C32.7806 542.771 118.21 532.576 118.21 532.576L187.855 538.86Z" fill="#0E2529"/>
<path opacity="0.7" d="M188.761 538.611C188.761 538.611 197.355 539.424 195.05 539.8C192.53 540.206 128.83 552.184 126.495 552.653C124.16 553.122 118.089 553.591 112.018 552.653C105.947 551.716 54.2655 547.681 49.5956 547.242C44.9256 546.806 48.9729 545.304 60.6479 543.428C72.3229 541.55 136.458 533.887 136.458 533.887L188.761 538.611Z" fill="#0E2529"/>
<path d="M136.459 193.583L188.764 203.435V538.611L136.459 547.275L76.4336 543.27V198.65L136.459 193.583Z" fill="#E6E7E8"/>
<path opacity="0.2" d="M76.4336 198.65L136.459 193.583V547.275L76.4336 543.27V198.65Z" fill="#231F20"/>
<path opacity="0.5" d="M175.033 421.172L152.12 422.516V425.144L175.033 423.83V421.172Z" fill="white"/>
<path d="M175.033 378.2H152.12V422.518L175.033 421.172V378.2Z" fill="#4D4D4D"/>
<path d="M175.033 378.2L163.576 399.687L175.033 421.172V378.2Z" fill="#333333"/>
<path d="M163.577 399.687L175.033 378.2H152.12V399.687H163.577Z" fill="#1A1A1A"/>
<path d="M184.371 277.995L141.749 274.178V350.898L184.308 351.585L184.371 277.995Z" fill="#4D4D4D"/>
<path opacity="0.5" d="M184.308 351.585L141.749 350.898V353.586L184.308 354.181V351.585Z" fill="white"/>
<path d="M167.902 294.539L141.749 292.664V274.178L184.371 277.995L167.902 294.539Z" fill="#0D1A21"/>
<path d="M184.371 277.995L167.902 294.54L184.308 351.586L184.371 277.995Z" fill="#333333"/>
<path d="M163.853 300.169L141.749 298.73V332.634L173.568 333.727L163.853 300.169Z" fill="#0D1A21"/>
<path d="M160.524 339.795L164.916 339.921L163.545 335.322L159.155 335.166L160.524 339.795Z" fill="#0D1A21"/>
<path d="M165.947 339.951L170.274 340.044L168.935 335.477L164.608 335.354L165.947 339.951Z" fill="#0D1A21"/>
<path d="M171.298 340.076L175.595 340.201L174.256 335.635L169.959 335.51L171.298 340.076Z" fill="#0D1A21"/>
<path d="M162.303 345.487L166.663 345.58L165.324 341.014L160.934 340.888L162.303 345.487Z" fill="#0D1A21"/>
<path d="M167.687 345.613L172.017 345.705L170.678 341.139L166.351 341.014L167.687 345.613Z" fill="#0D1A21"/>
<path d="M173.04 345.705L177.305 345.801L175.999 341.265L171.701 341.172L173.04 345.705Z" fill="#0D1A21"/>
<path d="M160.086 324.971L153.424 324.69C152.552 324.657 151.618 323.907 151.369 323L147.135 308.865C146.855 307.957 147.353 307.268 148.256 307.33L154.98 307.706C155.852 307.769 156.785 308.519 157.035 309.427L161.175 323.439C161.425 324.314 160.927 325.001 160.086 324.971ZM148.567 308.456C148.287 308.426 148.131 308.644 148.224 308.925L152.459 323.032C152.552 323.313 152.832 323.531 153.081 323.564L159.743 323.845C160.024 323.845 160.149 323.657 160.086 323.376L155.914 309.364C155.821 309.083 155.541 308.865 155.291 308.832L148.567 308.456Z" fill="#7FC284"/>
<path d="M159.028 322.844L153.238 322.594L152.491 320.091L158.282 320.342L159.028 322.844Z" fill="#7FC284"/>
<path d="M157.969 319.341L152.179 319.091L151.432 316.558L157.223 316.839L157.969 319.341Z" fill="#7FC284"/>
<path d="M156.943 315.839L151.121 315.555L150.373 313.023L156.195 313.336L156.943 315.839Z" fill="#7FC284"/>
<path d="M155.884 312.335L150.062 312.022L149.314 309.489L155.136 309.833L155.884 312.335Z" fill="#7FC284"/>
<path d="M153.919 307.644C154.106 308.268 153.763 308.77 153.141 308.74L150.743 308.614C150.121 308.582 149.467 308.02 149.28 307.393L149.062 306.643C148.876 306.016 149.218 305.517 149.841 305.548L152.238 305.705C152.861 305.736 153.514 306.3 153.701 306.924L153.919 307.644Z" fill="#7FC284"/>
<path d="M153.393 337.23C153.673 338.356 153.051 339.452 151.992 339.67C150.965 339.888 149.906 339.138 149.626 338.012C149.346 336.854 149.968 335.761 151.027 335.542C152.054 335.354 153.113 336.104 153.393 337.23Z" fill="#F69326"/>
<path d="M148.383 337.105C148.663 338.263 148.04 339.356 146.981 339.577C145.923 339.795 144.864 339.045 144.615 337.887C144.335 336.731 144.989 335.635 146.016 335.417C147.075 335.197 148.133 335.949 148.383 337.105Z" fill="#7FC284"/>
<path opacity="0.2" d="M141.749 274.178L184.371 277.995L175.561 321.154L141.749 319.592V274.178Z" fill="black"/>
<path d="M293.24 572.638C292.152 572.638 291.153 572.606 290.282 572.606C272.007 572.074 252.019 567.32 234.024 559.253C188.569 538.829 184.179 488.509 180.662 448.07C177.766 414.855 175.181 394.401 159.181 392.493C157.031 392.242 155.507 390.304 155.787 388.145C156.067 385.989 157.964 384.457 160.114 384.737C170.794 386.019 178.047 393.055 182.249 406.254C185.768 417.263 187.044 431.931 188.413 447.413C190.125 466.896 192.025 488.945 198.782 508.055C206.346 529.509 218.925 543.927 237.2 552.152C254.044 559.722 273.501 564.351 290.5 564.85C306.565 565.319 315.968 562.004 317.928 558.752C319.517 556.094 314.256 551.653 312.605 550.369C298.409 539.236 287.139 521.723 280.849 501.049C274.747 480.971 273.844 459.86 278.326 441.658C281.41 429.116 286.826 418.609 294.424 410.445C302.799 401.438 313.478 395.715 326.18 393.368C328.297 392.995 330.319 394.401 330.695 396.528C331.068 398.654 329.666 400.688 327.549 401.061C316.529 403.065 307.314 408.037 300.09 415.763C293.396 422.924 288.633 432.275 285.892 443.504C281.753 460.392 282.624 480.001 288.32 498.767C294.144 517.937 304.48 534.075 317.4 544.208C321.229 547.212 323.752 550.121 325.028 553.122C326.49 556.5 326.365 559.847 324.591 562.816C319.422 571.355 302.704 572.638 293.24 572.638Z" fill="#404041"/>
<path d="M293.486 571.262C292.46 571.262 291.401 571.262 290.342 571.229C272.377 570.73 252.733 566.039 235.018 558.062C190.901 538.235 186.574 488.727 183.118 448.945C181.779 433.744 180.535 419.389 177.204 408.943C173.622 397.777 167.988 392.117 159.456 391.084C158.678 390.991 158.15 390.304 158.242 389.522C158.337 388.74 159.021 388.208 159.799 388.301C169.545 389.459 175.927 395.746 179.882 408.098C183.305 418.857 184.582 433.368 185.921 448.724C187.633 468.336 189.562 490.572 196.443 509.993C204.259 532.137 217.271 547.024 236.202 555.53C253.604 563.348 272.875 567.947 290.467 568.446C305.534 568.885 317.18 566.006 320.106 561.129C322.471 557.187 318.176 552.621 314.189 549.494C300.399 538.672 289.409 521.595 283.275 501.392C277.298 481.751 276.424 461.109 280.784 443.316C287.074 417.639 303.355 401.157 326.643 396.902C327.391 396.776 328.137 397.278 328.262 398.027C328.387 398.78 327.889 399.529 327.141 399.655C305.006 403.689 289.502 419.452 283.492 443.97C279.258 461.297 280.131 481.377 285.953 500.547C291.929 520.189 302.546 536.796 315.903 547.242C324.776 554.186 324.403 559.409 322.503 562.566C319.14 568.072 308.43 571.262 293.486 571.262Z" fill="#231F20"/>
<path d="M345.919 386.957L361.579 386.769L362.978 389.898L362.948 401.282L351.708 404.346L339.567 399.873L326.397 403.439L323.597 392.992L345.919 386.957Z" fill="#4D4D4D"/>
<path opacity="0.3" d="M344.362 390.866L324.28 395.557L323.597 392.992L345.919 386.957L361.579 386.769L362.978 389.898L344.362 390.866Z" fill="white"/>
<path d="M339.567 399.873L326.397 403.439L325.714 400.873L341.995 396.432L362.948 401.282L351.71 404.346L339.567 399.873Z" fill="#162C30"/>
<g filter="url(#filter0_dd)">
<path fill-rule="evenodd" clip-rule="evenodd" d="M149.339 152.023C171.088 152.023 188.722 134.355 188.722 112.559V79.4638C188.722 57.6686 171.088 40 149.339 40H105.766C84.0161 40 66.3845 57.6686 66.3845 79.4638L66.3843 112.559C66.3843 134.355 84.0161 152.023 105.766 152.023H106.225C109.04 152.023 111.702 153.306 113.461 155.508L120.317 164.096C124.026 168.743 131.079 168.743 134.788 164.096L141.644 155.508C143.403 153.306 146.065 152.023 148.88 152.023H149.339Z" fill="#2AA83D"/>
</g>
<path d="M128.49 73.3268C129.161 72.002 130.915 71.2072 132.205 72.0549C133.186 72.6378 133.341 73.9097 133.083 74.9165C131.999 79.8978 130.864 84.879 129.883 89.8601C134.527 89.913 139.12 89.8071 143.765 89.913C146.19 90.1252 147.325 93.5694 145.932 95.4242C139.585 105.386 133.392 115.455 127.097 125.417C126.064 127.431 122.607 126.901 122.607 124.516C123.691 118.793 125.239 113.123 126.529 107.4C122.297 107.4 118.014 107.453 113.783 107.4C111.099 107.4 109.912 103.744 111.202 101.677C116.879 92.1387 122.762 82.7594 128.49 73.3268Z" fill="#F2E854"/>
<defs>
<filter id="filter0_dd" x="26.3843" y="0" width="202.337" height="207.581" filterUnits="userSpaceOnUse" color-interpolation-filters="sRGB">
<feFlood flood-opacity="0" result="BackgroundImageFix"/>
<feColorMatrix in="SourceAlpha" type="matrix" values="0 0 0 0 0 0 0 0 0 0 0 0 0 0 0 0 0 0 127 0"/>
<feOffset dx="10" dy="10"/>
<feGaussianBlur stdDeviation="15"/>
<feColorMatrix type="matrix" values="0 0 0 0 0.164706 0 0 0 0 0.658824 0 0 0 0 0.239216 0 0 0 0.4 0"/>
<feBlend mode="normal" in2="BackgroundImageFix" result="effect1_dropShadow"/>
<feColorMatrix in="SourceAlpha" type="matrix" values="0 0 0 0 0 0 0 0 0 0 0 0 0 0 0 0 0 0 127 0"/>
<feOffset dx="-10" dy="-10"/>
<feGaussianBlur stdDeviation="15"/>
<feColorMatrix type="matrix" values="0 0 0 0 0.164706 0 0 0 0 0.658824 0 0 0 0 0.239216 0 0 0 0.3 0"/>
<feBlend mode="normal" in2="effect1_dropShadow" result="effect2_dropShadow"/>
<feBlend mode="normal" in="SourceGraphic" in2="effect2_dropShadow" result="shape"/>
</filter>
<linearGradient id="paint0_linear" x1="491.694" y1="381.103" x2="409.855" y2="397.133" gradientUnits="userSpaceOnUse">
<stop stop-color="#097FDF" stop-opacity="0.81"/>
<stop offset="1" stop-color="#65BAFF"/>
</linearGradient>
<linearGradient id="paint1_linear" x1="290.894" y1="379.415" x2="316.205" y2="405.57" gradientUnits="userSpaceOnUse">
<stop stop-color="#097FDF"/>
<stop offset="1" stop-color="#65BAFF"/>
</linearGradient>
</defs>
</svg>
