<svg width="22" height="22" viewBox="0 0 22 22" fill="none" xmlns="http://www.w3.org/2000/svg">
<path d="M7.6857 2.27249L6.8981 2.51009C6.19563 2.7217 5.56825 3.12961 5.08982 3.68579C4.61139 4.24198 4.30183 4.92329 4.1976 5.64949C3.8709 7.92429 4.6013 10.5841 6.3624 13.6344C8.1191 16.677 10.0529 18.6372 12.1814 19.4952C12.8653 19.7708 13.614 19.8443 14.3384 19.7068C15.0628 19.5693 15.7325 19.2267 16.2679 18.7197L16.8652 18.1543C17.2522 17.7877 17.4929 17.2932 17.5427 16.7625C17.5925 16.2318 17.4479 15.7011 17.1358 15.269L15.6442 13.201C15.4425 12.9218 15.1586 12.7127 14.8321 12.603C14.5056 12.4934 14.153 12.4886 13.8237 12.5894L11.5676 13.2791L11.5093 13.2901C11.2607 13.3264 10.6876 12.7885 9.9726 11.5499C9.2246 10.2541 9.0684 9.49619 9.2752 9.30039L10.4236 8.23009C10.843 7.83887 11.1294 7.32619 11.2426 6.76396C11.3558 6.20173 11.2902 5.61815 11.055 5.09509L10.329 3.47699C10.11 2.98959 9.72106 2.59856 9.23485 2.37691C8.74864 2.15526 8.19837 2.11814 7.6868 2.27249H7.6857ZM9.3247 3.92799L10.0518 5.54609C10.1932 5.85985 10.2327 6.21002 10.1649 6.5474C10.097 6.88478 9.92512 7.19242 9.6734 7.42709L8.5228 8.49849C7.7858 9.19479 8.03 10.3861 9.0189 12.0999C9.9506 13.7125 10.7998 14.5089 11.7117 14.3703L11.8481 14.3417L14.1449 13.641C14.2547 13.6073 14.3723 13.6088 14.4812 13.6453C14.5901 13.6818 14.6848 13.7514 14.7521 13.8445L16.2437 15.9125C16.3999 16.1286 16.4723 16.3941 16.4474 16.6595C16.4225 16.925 16.302 17.1724 16.1084 17.3557L15.5111 17.9211C15.1287 18.283 14.6504 18.5275 14.1331 18.6256C13.6158 18.7237 13.0812 18.6712 12.5928 18.4744C10.725 17.722 8.9595 15.9323 7.315 13.0844C5.6672 10.2299 5.0006 7.80219 5.2866 5.80569C5.361 5.28683 5.58215 4.80004 5.92398 4.40267C6.26581 4.0053 6.71408 3.7139 7.216 3.56279L8.0047 3.32519C8.2604 3.24836 8.53533 3.26715 8.7782 3.37806C9.02107 3.48897 9.21531 3.68443 9.3247 3.92799Z" fill="white"/>
</svg>
