<svg width="22" height="22" viewBox="0 0 22 22" fill="none" xmlns="http://www.w3.org/2000/svg">
<path d="M2.75 8.30225V15.125C2.75 15.8543 3.03973 16.5538 3.55546 17.0695C4.07118 17.5853 4.77065 17.875 5.5 17.875H16.5C17.2293 17.875 17.9288 17.5853 18.4445 17.0695C18.9603 16.5538 19.25 15.8543 19.25 15.125V6.875C19.25 6.14565 18.9603 5.44618 18.4445 4.93046C17.9288 4.41473 17.2293 4.125 16.5 4.125H5.5C4.77065 4.125 4.07118 4.41473 3.55546 4.93046C3.03973 5.44618 2.75 6.14565 2.75 6.875V8.30225ZM5.5 5.5H16.5C16.8647 5.5 17.2144 5.64487 17.4723 5.90273C17.7301 6.16059 17.875 6.51033 17.875 6.875V7.8925L11 11.594L4.125 7.8925V6.875C4.125 6.51033 4.26987 6.16059 4.52773 5.90273C4.78559 5.64487 5.13533 5.5 5.5 5.5ZM4.125 9.4545L10.6741 12.98C10.7743 13.0339 10.8863 13.0621 11 13.0621C11.1137 13.0621 11.2257 13.0339 11.3259 12.98L17.875 9.4545V15.125C17.875 15.4897 17.7301 15.8394 17.4723 16.0973C17.2144 16.3551 16.8647 16.5 16.5 16.5H5.5C5.13533 16.5 4.78559 16.3551 4.52773 16.0973C4.26987 15.8394 4.125 15.4897 4.125 15.125V9.4545Z" fill="white"/>
</svg>
