<svg width="406" height="489" viewBox="0 0 406 489" fill="none" xmlns="http://www.w3.org/2000/svg">
<g clip-path="url(#clip0)">
<path d="M364.845 39.9584C297.559 6.223 212.309 32.4253 148.616 69.7635C74.798 113.325 -6.85923 185.381 0.326616 280.037C3.59291 320.978 26.4569 356.023 58.4666 380.588C95.0491 408.428 140.124 423.167 185.525 426.114C240.072 429.717 279.921 418.909 310.624 394.017C343.614 367.487 362.558 325.891 378.563 286.26C394.895 245.974 403.714 203.068 405.02 159.834C405.673 138.217 414.492 64.8506 364.845 39.9584Z" fill="#2AA83D"/>
<path d="M278.615 205.36C273.062 200.447 267.183 206.67 262.283 208.963C255.097 212.566 250.525 215.514 243.012 220.754C238.766 216.824 232.56 211.911 226.354 203.395C224.068 200.12 219.495 196.845 213.289 199.465C210.676 200.447 207.409 203.723 207.736 208.963C208.063 212.566 210.676 213.876 213.942 218.461C217.208 223.047 220.148 227.96 224.721 232.218C231.907 239.423 235.826 241.388 238.439 243.354C242.032 245.974 251.504 241.716 257.384 240.406C267.183 238.441 275.022 240.733 281.554 230.908C285.8 223.702 284.494 210.601 278.615 205.36Z" fill="#FCE8DB"/>
<path d="M216.555 200.12C213.289 194.224 210.676 188.656 209.043 182.106C208.716 181.123 207.409 181.123 207.083 181.778C205.776 184.071 205.45 186.364 205.776 188.656C200.55 187.019 197.284 184.071 192.058 182.106C190.098 181.123 186.179 181.778 183.892 183.088C179.646 185.381 179.646 189.311 182.912 193.242C184.872 195.862 190.425 197.172 193.364 197.827C199.897 199.465 202.51 202.085 208.389 206.015C212.636 207.326 216.882 202.74 216.555 200.12Z" fill="#FFC9B6"/>
<path d="M215.249 197.5C215.249 197.5 215.902 200.775 211.656 203.396C209.043 205.033 206.103 203.723 206.103 203.723C206.103 203.723 207.409 206.998 208.716 208.308C210.022 209.619 213.942 210.929 217.535 207.326C221.128 203.723 219.168 201.758 218.515 200.448C217.862 199.138 215.249 197.5 215.249 197.5Z" fill="#F4EBEA"/>
<path d="M256.404 279.709C256.404 279.709 245.625 306.894 243.992 318.03C242.359 329.166 239.092 345.87 237.133 359.626C235.173 373.383 235.173 387.139 236.153 400.567C236.479 405.808 238.439 419.892 237.459 427.752C238.766 432.665 250.198 433.32 251.504 427.425C252.484 423.822 261.303 392.052 262.283 382.226C263.263 372.072 260.977 365.194 260.977 365.194C260.977 365.194 275.348 334.079 280.574 321.633C285.8 309.515 282.208 294.121 282.208 294.121L256.404 279.709Z" fill="#2C1D1B"/>
<path d="M251.504 426.442C251.504 426.442 251.831 429.717 252.811 433.32C253.791 436.595 252.484 441.508 252.484 441.508C252.484 441.508 251.831 443.473 248.565 444.128C245.625 444.784 243.339 444.128 243.339 444.128C243.339 444.128 240.399 447.731 236.48 450.351C232.56 452.972 224.394 455.264 222.108 454.937C218.515 454.282 216.555 451.334 216.882 449.696C217.208 447.731 221.455 442.818 225.048 440.526C227.334 439.216 232.56 434.303 234.193 432.337C236.806 429.39 238.766 426.442 238.766 426.442H251.504Z" fill="#2C1D1B"/>
<path d="M306.051 454.282C306.051 454.282 308.011 461.487 307.685 465.745C307.358 470.003 306.378 470.986 305.072 472.296C303.765 473.606 302.132 472.951 302.132 472.951C302.132 472.951 301.479 481.794 297.559 485.07C293.313 488.672 285.8 489 282.534 487.69C279.268 486.38 281.228 480.157 284.821 473.933C288.087 467.71 292.333 461.16 293.64 455.592C301.805 455.264 306.051 454.282 306.051 454.282Z" fill="#2C1D1B"/>
<path d="M294.62 291.173C294.62 291.173 299.846 298.706 304.092 311.48C307.031 320.651 306.705 342.595 306.705 342.595C306.705 342.595 307.358 364.212 306.052 371.745C304.745 379.278 304.745 380.589 304.745 380.589C304.745 380.589 310.624 398.603 309.644 419.564C308.665 440.854 307.031 455.92 307.031 455.92C307.031 455.92 305.725 459.85 300.499 460.506C295.599 461.161 292.006 457.558 292.006 457.558C292.006 457.558 282.861 412.686 279.595 402.533C276.328 392.38 275.022 380.589 275.022 380.589L267.836 330.477C267.836 330.477 254.117 321.633 261.303 299.034C265.55 284.95 294.62 291.173 294.62 291.173Z" fill="#3F2A28"/>
<path d="M309.971 233.856C303.112 220.427 285.147 210.601 270.449 212.894C263.59 218.462 260.323 222.065 257.71 228.943C255.424 234.838 254.444 242.044 255.097 248.267C257.384 267.264 252.811 285.605 251.178 292.811C256.404 302.637 266.203 307.222 277.308 309.187C283.514 310.17 298.539 306.567 300.172 302.637C302.132 287.243 305.725 274.797 310.951 260.386C314.217 252.852 313.891 241.389 309.971 233.856Z" fill="white"/>
<path d="M275.022 204.378C275.022 204.378 276.328 213.549 273.062 216.824C269.796 220.099 269.796 226.65 276.328 228.943C284.494 231.563 290.373 225.667 295.273 221.737C292.986 217.152 292.006 217.152 292.006 204.05C292.006 192.914 275.022 204.378 275.022 204.378Z" fill="#FCA188"/>
<path d="M292.333 212.566C292.333 212.566 290.7 218.134 286.454 221.409C281.228 225.34 271.755 225.995 271.755 228.615C274.695 228.615 275.022 228.615 275.022 230.908C275.022 234.838 276.002 235.493 276.002 235.493C276.002 235.493 282.861 233.528 288.087 231.563C294.293 228.943 297.233 220.099 297.233 220.099C297.233 220.099 296.253 212.239 292.333 212.566Z" fill="#FFF3EB"/>
<path d="M271.755 212.894C271.755 212.894 267.836 217.479 265.876 219.444C264.243 221.409 265.223 225.34 264.243 226.977C263.263 228.615 262.936 229.925 262.936 229.925C262.936 229.925 266.529 229.27 267.183 226.977C267.836 225.012 271.429 228.615 271.429 228.615L274.042 226.65C274.042 226.65 270.122 224.03 271.429 221.409C272.735 218.789 275.022 215.186 275.022 215.186L271.755 212.894Z" fill="#FFF3EB"/>
<path d="M289.72 181.778C284.494 176.21 271.102 173.917 266.529 182.106C262.936 188.329 262.61 199.465 263.59 204.378C265.549 215.186 274.368 221.409 284.494 213.221C294.293 205.36 298.539 191.276 289.72 181.778Z" fill="#FFB69F"/>
<path d="M301.152 191.932C302.132 186.364 299.192 182.433 294.293 182.433C294.946 178.176 292.333 174.245 288.414 172.28C282.208 169.005 274.695 171.297 268.163 173.263C266.203 172.28 261.63 169.66 260.977 171.953C260.323 173.59 261.63 175.228 262.283 176.865C260.323 176.538 256.73 174.9 255.097 176.21C251.178 179.158 258.037 184.399 261.303 186.036C263.59 187.019 266.529 188.001 269.469 188.001C269.142 188.329 268.816 188.656 268.816 189.312C268.489 189.967 268.816 190.622 269.142 190.949C271.755 192.587 276.328 193.242 279.268 191.604C279.268 194.224 280.248 197.172 282.208 198.482C283.187 199.137 285.147 199.792 286.78 199.792C287.107 202.085 289.393 206.671 291.68 207.326C294.62 204.705 300.499 195.862 301.152 191.932Z" fill="#2C1D1B"/>
<path d="M284.494 200.775C284.494 200.775 287.434 196.19 290.047 199.793C292.66 203.068 287.434 206.343 287.434 206.343L284.494 200.775Z" fill="#FFB69F"/>
<path d="M162.335 444.456C161.355 443.474 160.702 436.596 160.702 430.045C162.008 419.892 158.742 402.86 158.742 392.707C158.742 386.484 159.722 372.728 161.028 362.902C162.008 354.713 163.641 347.835 164.294 339.647C166.907 328.839 167.561 317.703 166.254 306.239C157.435 309.187 147.31 310.497 137.511 310.497C136.531 318.685 136.531 327.201 138.164 335.389C139.144 340.302 140.777 344.888 142.41 349.801C143.717 353.076 145.023 356.679 145.023 360.281C145.35 364.539 141.43 371.09 140.451 375.02C138.164 386.811 143.064 394.344 146.656 409.738C147.963 415.961 148.29 420.547 148.616 422.839C147.31 424.477 146.656 425.132 146.33 426.115C144.043 430.045 147.636 433.648 149.27 436.923C150.903 440.198 149.923 449.369 152.209 451.007C154.169 452.644 161.355 456.902 165.928 454.937C169.194 452.972 165.274 447.076 162.335 444.456Z" fill="#FCA188"/>
<path d="M208.063 225.667C205.123 229.598 201.53 231.563 199.897 231.235C198.591 230.908 200.224 228.615 201.204 225.667C202.183 222.719 199.57 223.702 197.284 226.977C194.998 230.253 195.978 233.855 194.344 235.166C192.711 236.476 183.239 239.423 178.34 240.406C176.38 240.734 172.134 241.716 169.521 242.699C166.254 237.458 158.089 224.03 153.842 214.531C148.616 203.723 136.204 210.273 136.204 210.273L145.35 235.166C145.35 235.166 159.395 248.922 164.948 255.472C167.887 258.748 171.154 257.765 178.013 256.455C184.545 255.145 194.671 245.646 200.55 241.389C204.143 238.768 214.595 235.493 215.249 228.287C215.902 220.754 211.329 221.737 208.063 225.667Z" fill="#FCA188"/>
<path d="M145.677 431.683C147.636 437.906 150.249 448.059 150.576 451.007C150.903 453.955 155.802 457.885 163.968 457.558C172.134 457.23 169.194 453.3 167.234 450.352C166.254 449.042 165.601 447.732 164.621 446.749C164.621 446.749 163.315 449.042 160.048 449.697C156.782 450.025 155.149 449.697 153.516 446.422C151.883 443.147 148.943 433.321 147.963 430.701C146.983 428.08 148.943 422.84 148.943 422.84C146.33 425.133 144.043 427.098 145.677 431.683Z" fill="#EF4335"/>
<path d="M145.35 430.7V445.111C145.35 445.439 145.677 445.439 146.33 445.439C146.983 445.439 147.31 445.111 147.31 445.111V433.975L145.35 430.7Z" fill="#EF4335"/>
<path d="M135.551 454.937C134.571 453.955 134.898 447.077 135.225 440.199C137.511 430.373 136.204 413.014 137.184 402.86C137.838 396.637 140.124 382.881 142.41 373.383C144.37 365.522 146.657 358.644 148.29 350.456C151.883 339.975 153.842 328.839 153.842 317.375C144.697 319.668 134.571 319.668 124.772 318.358C122.813 326.546 122.159 334.734 122.813 342.923C123.139 347.836 124.446 352.749 125.426 357.661C126.406 361.264 127.385 364.54 127.059 368.47C126.732 372.728 123.139 379.933 122.159 383.864C118.24 397.62 121.833 402.205 123.466 418.254C124.119 424.477 124.119 429.063 123.792 431.355C122.486 432.665 121.833 433.648 121.179 434.303C118.566 437.906 121.506 441.836 123.139 445.112C124.446 448.387 122.486 457.558 124.446 459.523C126.406 461.16 132.611 466.401 137.511 464.763C141.104 464.108 137.838 457.885 135.551 454.937Z" fill="#FFB69F"/>
<path d="M119.873 440.526C121.179 447.076 122.813 457.23 122.813 460.178C122.813 463.125 127.059 467.383 135.224 468.038C143.39 468.693 140.777 464.435 139.144 461.16C138.491 459.523 137.837 458.54 136.858 457.23C136.858 457.23 135.224 459.523 131.958 459.523C128.365 459.523 127.059 458.868 125.752 455.592C124.446 452.317 122.813 442.164 121.833 439.216C121.179 436.268 123.792 431.683 123.792 431.683C121.506 434.303 118.893 435.613 119.873 440.526Z" fill="#EF4335"/>
<path d="M119.873 439.543L118.24 453.954C118.24 454.282 118.566 454.609 119.22 454.609C119.873 454.609 120.2 454.609 120.2 454.282L121.506 443.146L119.873 439.543Z" fill="#EF4335"/>
<path d="M164.621 286.588C161.355 280.365 157.435 276.107 157.435 271.849C157.435 265.298 157.762 257.438 156.129 251.215C157.762 248.922 163.968 245.974 161.028 237.786C159.395 233.2 155.802 229.27 154.496 227.632C152.536 225.012 148.943 220.427 145.35 217.807C141.757 215.514 140.451 216.824 137.184 218.462C136.858 218.462 124.446 222.72 115.953 228.288C114.32 229.27 111.381 231.235 110.401 232.545C107.788 235.821 108.441 238.441 108.441 241.716C108.441 242.044 117.913 259.403 122.813 270.211C124.446 274.142 126.732 276.434 124.119 281.02C120.853 287.243 117.587 289.863 114.647 302.309C107.788 331.131 123.792 370.435 123.792 370.435C123.792 370.435 130.652 376.658 141.757 376.003C156.782 375.02 162.988 368.142 162.988 368.142C162.988 368.142 168.541 341.285 168.867 321.306C168.867 308.204 168.867 294.121 164.621 286.588Z" fill="#2F356D"/>
<path d="M148.943 215.842C149.27 213.549 148.616 210.929 147.31 208.964C145.35 206.343 141.104 204.051 137.838 206.016C135.551 206.343 133.591 209.291 133.591 211.584C131.632 217.479 137.838 223.047 143.064 222.065C142.737 223.702 142.737 225.668 143.39 226.978C144.697 229.598 147.636 230.58 149.923 228.615C152.536 226.65 153.842 222.72 152.862 219.772C152.209 217.807 150.576 216.169 148.943 215.842Z" fill="#2C1D1B"/>
<path d="M128.692 229.27C131.632 229.925 134.245 229.27 136.858 226.977C138.817 225.34 139.144 223.375 139.471 221.737C138.164 220.754 136.858 218.789 136.858 216.497C136.858 214.531 137.184 212.894 137.184 210.929C134.571 209.618 131.958 207.981 128.692 207.326C127.059 206.998 124.446 202.413 122.813 201.758C124.119 205.688 123.466 211.584 123.139 213.876C122.813 216.497 122.159 222.392 120.526 225.34C121.506 226.65 126.079 228.943 128.692 229.27Z" fill="#FCA188"/>
<path d="M147.636 194.225C146.983 189.967 145.677 184.727 142.41 181.779C138.817 179.159 135.551 178.831 131.305 179.486C124.772 180.469 119.873 190.295 121.833 198.483C123.466 206.016 128.365 215.514 136.858 216.497C146.33 217.807 148.29 200.776 147.636 194.225Z" fill="#FFB69F"/>
<path d="M130.652 197.5C130.652 197.5 127.059 193.569 125.752 196.517C124.119 199.465 127.059 204.705 129.672 204.378C131.632 203.723 130.652 197.5 130.652 197.5Z" fill="#FFC9B6"/>
<path d="M151.229 176.211C146.657 171.625 137.511 170.97 132.611 174.573C130.325 171.625 125.752 171.953 122.486 173.59C118.893 175.228 116.933 179.486 117.26 183.089C110.401 183.416 106.808 193.897 111.381 198.81C109.421 200.448 108.114 203.068 108.114 206.016C108.441 210.274 111.707 213.549 115.627 214.859C113.014 217.152 111.054 220.1 112.36 224.03C114.32 228.943 119.546 230.253 124.119 230.58C122.813 233.856 124.772 236.803 126.732 238.441C129.345 241.061 132.938 240.734 135.551 238.769C138.164 236.803 139.471 233.528 137.184 230.58C136.531 229.925 134.571 227.96 132.611 227.96C134.245 223.047 130.978 219.117 126.732 219.444C127.712 216.824 128.039 214.532 126.405 212.566C129.672 209.946 131.632 206.016 131.632 201.758C131.632 200.12 131.305 198.483 130.325 197.5C135.224 195.207 138.817 191.277 140.451 186.037C142.41 187.019 144.697 188.657 145.677 190.294C146.983 192.26 147.31 196.845 147.31 198.483C157.109 194.225 157.435 181.779 151.229 176.211Z" fill="#3F2A28"/>
<path d="M123.466 272.176L123.792 281.02C123.792 281.02 135.878 286.588 145.35 285.277C156.782 283.64 159.722 278.727 159.722 278.727L157.435 267.918C157.435 267.918 156.455 271.849 146.33 272.831C136.531 273.814 123.466 272.176 123.466 272.176Z" fill="#263238"/>
<path d="M131.632 316.721C131.632 316.721 133.591 327.857 143.064 330.149C152.209 332.442 157.435 330.149 157.435 330.149C157.435 330.149 146.983 328.512 142.737 325.564C138.491 323.271 131.632 316.721 131.632 316.721Z" fill="#263238"/>
<path d="M143.064 316.721C143.064 316.721 149.27 316.066 153.842 311.153C158.415 306.24 159.722 301.982 159.722 301.982C159.722 301.982 160.375 311.48 153.842 315.411C147.636 319.341 143.064 316.721 143.064 316.721Z" fill="#263238"/>
<path d="M134.571 335.717C134.571 335.717 140.124 347.18 147.31 351.766C151.883 354.713 156.455 354.058 156.455 354.058C156.455 354.058 152.536 350.128 147.31 346.853C142.41 343.905 134.571 335.717 134.571 335.717Z" fill="#263238"/>
<path d="M129.998 256.455C129.998 256.455 138.164 258.093 141.757 256.455C145.677 254.818 150.903 251.215 150.903 251.215C150.903 251.215 149.596 258.093 141.757 259.403C134.571 261.041 129.998 256.455 129.998 256.455Z" fill="#263238"/>
<path d="M201.204 302.637C226.278 302.637 246.605 291.786 246.605 278.4C246.605 265.014 226.278 254.163 201.204 254.163C176.129 254.163 155.802 265.014 155.802 278.4C155.802 291.786 176.129 302.637 201.204 302.637Z" fill="#AA8887"/>
<path d="M201.204 296.413C226.278 296.413 246.605 285.562 246.605 272.176C246.605 258.79 226.278 247.939 201.204 247.939C176.129 247.939 155.802 258.79 155.802 272.176C155.802 285.562 176.129 296.413 201.204 296.413Z" fill="#C6A8A5"/>
<path d="M201.204 288.88C226.278 288.88 246.605 278.029 246.605 264.643C246.605 251.258 226.278 240.406 201.204 240.406C176.129 240.406 155.802 251.258 155.802 264.643C155.802 278.029 176.129 288.88 201.204 288.88Z" fill="#AA8887"/>
<path d="M201.204 282.657C226.278 282.657 246.605 271.806 246.605 258.42C246.605 245.034 226.278 234.183 201.204 234.183C176.129 234.183 155.802 245.034 155.802 258.42C155.802 271.806 176.129 282.657 201.204 282.657Z" fill="#C6A8A5"/>
<path d="M201.204 276.435C226.278 276.435 246.605 265.583 246.605 252.198C246.605 238.812 226.278 227.96 201.204 227.96C176.129 227.96 155.802 238.812 155.802 252.198C155.802 265.583 176.129 276.435 201.204 276.435Z" fill="#AA8887"/>
<path d="M201.204 270.211C226.278 270.211 246.605 259.36 246.605 245.974C246.605 232.588 226.278 221.737 201.204 221.737C176.129 221.737 155.802 232.588 155.802 245.974C155.802 259.36 176.129 270.211 201.204 270.211Z" fill="#C6A8A5"/>
<path d="M201.204 263.005C226.278 263.005 246.605 252.154 246.605 238.768C246.605 225.383 226.278 214.531 201.204 214.531C176.129 214.531 155.802 225.383 155.802 238.768C155.802 252.154 176.129 263.005 201.204 263.005Z" fill="#AA8887"/>
<path d="M201.204 256.783C226.278 256.783 246.605 245.931 246.605 232.546C246.605 219.16 226.278 208.309 201.204 208.309C176.129 208.309 155.802 219.16 155.802 232.546C155.802 245.931 176.129 256.783 201.204 256.783Z" fill="#C6A8A5"/>
<path d="M201.204 249.25C226.278 249.25 246.605 238.398 246.605 225.012C246.605 211.627 226.278 200.775 201.204 200.775C176.129 200.775 155.802 211.627 155.802 225.012C155.802 238.398 176.129 249.25 201.204 249.25Z" fill="#DEC9C5"/>
<path d="M201.203 241.389C223.933 241.389 242.359 231.564 242.359 219.444C242.359 207.325 223.933 197.5 201.203 197.5C178.474 197.5 160.048 207.325 160.048 219.444C160.048 231.564 178.474 241.389 201.203 241.389Z" fill="#AA8887"/>
<path d="M283.514 81.8821C283.514 36.6832 246.932 0 201.857 0C156.782 0 120.199 36.6832 120.199 81.8821C120.199 94.0007 123.466 105.464 127.712 115.945C135.224 135.924 156.455 162.127 159.395 201.102C162.335 240.078 202.183 236.476 202.183 236.476C202.183 236.476 241.706 240.078 244.645 201.102C247.585 162.127 268.816 135.924 276.328 115.945C279.921 105.464 283.514 94.3282 283.514 81.8821Z" fill="#8DA3FF"/>
<path d="M259.67 24.2378C262.936 33.0811 264.57 42.9069 264.57 52.7328C264.57 100.224 226.354 138.545 178.993 138.545C161.028 138.545 144.697 132.977 130.978 123.806C140.124 142.803 156.782 167.04 159.395 201.431C162.335 240.407 202.183 236.804 202.183 236.804C202.183 236.804 241.706 240.407 244.645 201.431C247.585 162.455 268.816 136.253 276.328 116.273C280.248 105.465 283.841 94.3289 283.841 82.2103C283.514 59.6109 274.368 38.9766 259.67 24.2378Z" fill="#778DFD"/>
<path opacity="0.5" d="M194.308 71.9336C215.866 59.4523 226.031 36.6352 217.011 20.9702C207.991 5.30523 183.203 2.72438 161.645 15.2057C140.087 27.6871 129.922 50.5042 138.942 66.1691C147.961 81.8341 172.749 84.415 194.308 71.9336Z" fill="#AEC1FF"/>
<path d="M194.018 18.3418C185.199 15.7216 173.113 18.0143 169.847 30.1328C167.561 38.9761 185.199 36.3559 190.098 34.7182C193.038 33.7357 197.611 31.443 198.917 28.4952C200.877 24.2373 199.244 19.6519 194.018 18.3418Z" fill="white"/>
<path d="M162.988 42.5787C162.661 39.3034 160.048 37.6658 157.109 37.9933C151.883 38.6483 147.636 43.8888 146.983 49.1292C146.656 50.1118 146.33 54.0422 147.963 56.0073C150.903 59.9377 157.435 54.0422 159.395 51.0944C161.028 48.8017 163.315 45.854 162.988 42.5787Z" fill="white"/>
<path opacity="0.5" d="M251.178 132.322C246.605 138.545 237.459 150.663 229.947 154.266C214.595 161.799 207.409 158.197 195.977 162.127C194.018 162.782 194.018 165.402 195.977 166.057C203.49 168.35 213.289 170.643 219.495 176.211C222.108 178.831 227.66 184.071 229.947 184.071C237.133 184.071 242.032 171.298 244.972 164.092C250.524 150.663 262.936 132.977 264.57 127.081C267.183 118.566 260.977 118.893 251.178 132.322Z" fill="#5E79E6"/>
<path d="M220.475 210.929C215.902 207.981 209.043 206.343 201.204 206.343C193.364 206.343 186.505 208.308 181.932 211.256H176.053V219.444C176.053 226.978 187.158 232.873 201.204 232.873C214.922 232.873 226.354 226.978 226.354 219.444V210.929H220.475Z" fill="#3F2A28"/>
<path d="M201.204 224.357C215.094 224.357 226.354 218.345 226.354 210.929C226.354 203.512 215.094 197.5 201.204 197.5C187.313 197.5 176.053 203.512 176.053 210.929C176.053 218.345 187.313 224.357 201.204 224.357Z" fill="#563C3B"/>
<path d="M201.204 217.807C210.945 217.807 218.841 213.555 218.841 208.309C218.841 203.063 210.945 198.811 201.204 198.811C191.462 198.811 183.566 203.063 183.566 208.309C183.566 213.555 191.462 217.807 201.204 217.807Z" fill="#3F2A28"/>
<path d="M193.364 205.688C182.912 204.706 180.626 188.002 178.993 180.141C178.013 176.211 174.747 163.765 172.134 150.991C169.52 138.545 167.234 125.444 165.928 119.548C168.867 113.653 167.561 107.757 161.681 106.447C158.088 105.465 151.229 110.378 155.475 117.583C157.435 121.186 160.375 121.514 162.988 121.186C166.254 139.2 173.113 168.35 175.726 179.159C178.339 190.622 179.973 206.998 193.364 208.309C195.324 208.309 195.651 205.688 193.364 205.688Z" fill="#3F2A28"/>
<path d="M210.676 205.688C221.128 204.706 223.414 188.002 225.047 180.141C226.027 176.211 229.294 163.765 231.907 150.991C234.52 138.545 236.806 125.444 238.113 119.548C235.173 113.653 236.479 107.757 242.359 106.447C245.952 105.465 252.811 110.378 248.565 117.583C246.605 121.186 243.665 121.514 241.052 121.186C237.786 139.2 230.927 168.35 228.314 179.159C225.701 190.622 224.068 206.998 210.676 208.309C208.716 208.309 208.389 205.688 210.676 205.688Z" fill="#3F2A28"/>
<path d="M308.991 231.563C303.438 226.65 297.559 232.873 292.66 235.165C285.474 238.768 280.901 241.716 273.389 246.956C269.142 243.026 262.936 238.113 256.73 229.597C254.444 226.322 249.871 223.047 243.665 225.667C241.052 226.65 237.786 229.925 238.113 235.165C238.439 238.768 241.052 240.078 244.319 244.664C247.585 249.249 250.525 254.162 255.097 258.42C262.283 265.625 266.203 267.591 268.816 269.556C272.409 272.176 281.881 267.918 287.76 266.608C297.559 264.643 305.398 266.936 311.931 257.11C316.177 249.904 314.87 236.803 308.991 231.563Z" fill="#FFF3EB"/>
<path d="M247.585 226.977C244.319 221.082 241.705 215.514 240.072 208.963C239.746 207.981 238.439 207.981 238.113 208.636C236.806 210.928 236.479 213.221 236.806 215.514C231.58 213.876 228.314 210.928 223.088 208.963C221.128 207.981 217.208 208.636 214.922 209.946C210.676 212.239 210.676 216.169 213.942 220.099C215.902 222.719 221.454 224.03 224.394 224.685C230.927 226.322 233.54 228.943 239.419 232.873C243.665 234.51 247.585 229.925 247.585 226.977Z" fill="#FFC9B6"/>
<path d="M246.278 224.685C246.278 224.685 246.932 227.96 242.685 230.58C240.072 232.218 237.133 230.908 237.133 230.908C237.133 230.908 238.439 234.183 239.746 235.493C241.052 236.803 244.972 238.113 248.565 234.51C252.158 230.908 250.198 228.942 249.545 227.632C248.565 225.995 246.278 224.685 246.278 224.685Z" fill="white"/>
<path d="M175.4 232.545C174.42 229.27 173.113 227.96 169.847 229.598C166.254 231.235 162.661 235.493 159.722 238.441C159.722 237.458 159.068 235.493 159.722 233.2C160.048 232.218 158.415 231.235 157.762 232.545C155.475 236.476 154.496 242.044 155.802 246.957C153.516 250.559 146.983 255.472 143.064 257.11C139.144 258.748 133.591 261.04 130.652 264.316C129.672 262.023 126.405 254.162 124.119 251.87C123.466 249.577 123.466 244.991 122.486 242.699C120.526 237.786 115.3 230.908 109.747 232.218C105.828 234.511 104.195 239.751 104.195 243.681C104.195 251.87 109.747 253.18 113.994 259.403C116.933 263.988 117.26 268.574 124.119 275.124C125.099 276.107 126.732 277.744 130.652 276.434C134.571 275.124 135.878 277.089 139.797 275.779C145.35 274.142 157.435 258.093 160.702 253.18C161.681 251.87 164.621 247.612 165.928 246.629C167.887 245.319 169.847 244.009 171.807 242.371C175.073 240.079 176.706 237.131 175.4 232.545Z" fill="#FFB69F"/>
</g>
<defs>
<clipPath id="clip0">
<rect width="406" height="489" fill="white"/>
</clipPath>
</defs>
</svg>
