<svg width="22" height="22" viewBox="0 0 22 22" fill="none" xmlns="http://www.w3.org/2000/svg">
<path d="M11 11.917C12.5188 11.917 13.75 10.6858 13.75 9.16699C13.75 7.64821 12.5188 6.41699 11 6.41699C9.48122 6.41699 8.25 7.64821 8.25 9.16699C8.25 10.6858 9.48122 11.917 11 11.917Z" stroke="white" stroke-width="2" stroke-linecap="round" stroke-linejoin="round"/>
<path d="M11 1.8335C9.05507 1.8335 7.18981 2.60611 5.81454 3.98138C4.43927 5.35665 3.66666 7.22191 3.66666 9.16683C3.66666 10.9012 4.03516 12.036 5.04166 13.2918L11 20.1668L16.9583 13.2918C17.9648 12.036 18.3333 10.9012 18.3333 9.16683C18.3333 7.22191 17.5607 5.35665 16.1854 3.98138C14.8102 2.60611 12.9449 1.8335 11 1.8335V1.8335Z" stroke="white" stroke-width="2" stroke-linecap="round" stroke-linejoin="round"/>
</svg>
