<svg width="19" height="20" viewBox="0 0 19 20" fill="none" xmlns="http://www.w3.org/2000/svg">
<g clip-path="url(#clip0)">
<path d="M17.0139 3.875C16.5509 3.375 15.8565 3.375 15.3935 3.875L12.1528 7.375L10.4167 5.625L13.6574 2.125C14.1204 1.625 14.1204 0.875 13.6574 0.375C13.1944 -0.125 12.5 -0.125 12.037 0.375L8.7963 3.875L7.17593 2.125L5.55556 3.875L6.36574 4.75L4.74537 6.5C3.125 8.25 3.00926 10.875 4.16667 12.875C2.19908 14.75 1.15741 17.625 1.15741 20H3.47222C3.47222 18.375 3.93519 16 5.90278 14.5C7.63889 15.5 9.83797 15.125 11.2269 13.625L12.8472 11.875L13.6574 12.75L15.2778 11L13.6574 9.25L16.8982 5.75C17.4769 5.125 17.4769 4.375 17.0139 3.875Z" fill="#2AA83D"/>
</g>
<defs>
<clipPath id="clip0">
<rect width="18.5185" height="20" fill="white"/>
</clipPath>
</defs>
</svg>
